<svg xmlns="http://www.w3.org/2000/svg" viewBox="0 0 42 38">
<!-- HimRate favicon — mark only, magenta brand color. Rails serves via <link rel="icon" type="image/svg+xml" href="/assets/brand/favicon.svg">. -->
  <path fill="#C35FA5" d="m24.7 4.5 0.7 3.2c1 0.3 2 1.2 2 2.3 0 1.3-1.1 2.5-2.6 2.5-1.2 0-2.5-1-2.5-2.5 0-0.8 0.4-1.5 1.1-2l-0.7-3.2c-2.7 0.5-4.6 2.8-4.6 5.6 0 3.3 2.6 6.1 6 6.1 3.2 0 6-2.5 6.1-6 0.1-2.9-2.3-5.7-5.5-6z"/>
  <path fill="#C35FA5" d="m22.4 2.6 1.9-0.4 0.4 2.2c-0.6-0.1-1.3 0-1.9 0.1l-0.4-1.9z"/>
  <path fill="#C35FA5" d="m33.6 18.6c-1.4-1.2-4.8-2.6-7.4-0.6-2.6 2.2-4.2 5.8-4.6 12.3h19.3c-1.5-4.8-5.6-9.9-7.3-11.7z"/>
  <path fill="#C35FA5" d="m14.7 26.2c-1.6 0.2-3.2 1.3-4 2.9h-6.4c-0.7 0-1.4-0.2-1-1.5 0.6-2.3 3.1-8.7 3.8-10.8 0.2-0.6 0.5-0.8 0.7-0.8 0.9 4 2.1 8.3 2.8 9l1.6-0.4-3.9-20-1.7 0.4c-0.1 2.8 0.4 6.6 1 9.7-0.7 0.2-1.2 0.6-1.6 1.3-0.9 1.9-3.8 9-4.1 11.7-0.3 1.2 0.3 2.6 2 2.6h15.1c0-2.3-2-4.1-4.3-4.1z"/>
</svg>
