<svg xmlns="http://www.w3.org/2000/svg" viewBox="0 0 216 144">
<!-- HimRate logo — square gradient. PRIMARY tile (social media / CWS promo 216x144). -->
  <style type="text/css">.cls-0 {fill:url(#SVGID_1_);}
.cls-1 {fill:#441068;}
.cls-2 {fill:#FFFFFF;}
.cls-3 {fill:none;stroke:#441068;stroke-width:1.7754;stroke-miterlimit:10;}</style>
  <linearGradient id="SVGID_1_" x1="1.49" x2="215" y1="143.6" y2=".5017" gradientUnits="userSpaceOnUse">
    <stop stop-color="#A752E0" offset="0"/>
    <stop stop-color="#B575ED" offset="1"/>
  </linearGradient>
  <path class="cls-0" d="m213.5 144h-210.3c-1.7 0-3-1.3-3-3v-138c0-1.6 1.3-3 2.9-3h210.9c1.2 0 2 1.3 2 3v138c0 1.7-1.3 3-2.5 3z"/>
  <path class="cls-1" d="m90.1 83.7h-4.8v-24.5h4.8v10.2h2.7v-10.2h4.8v24.4h-4.7v-9.7h-2.7v9.8z"/>
  <path class="cls-1" d="m99.6 59.2h4.7v24.4h-4.7v-24.4z"/>
  <path class="cls-1" d="m111.6 72.2v11.4h-4.7v-24.4h5l2.8 10.1 2.7-10.1h5.2v24.4h-4.7v-11.4l-3.2 9.6-3.1-9.6z"/>
  <path class="cls-1" d="m136.5 73.8c0 1.1-0.8 2.2-2.2 2.2l2.6 7.6h-5l-2.5-7.6h-0.7v7.6h-4.7v-24.4h9.2c2.3 0 3.3 1.2 3.3 3.1v11.5zm-7.6-10.4v8.2h2.3c0.4 0 0.5-0.1 0.5-0.5v-7.1c0-0.3-0.1-0.5-0.5-0.5h-2.3z"/>
  <path class="cls-1" d="m143.2 80.5-0.4 3.2h-4.8l4.3-24.5h5.1l4.3 24.5h-4.7l-0.5-3.2h-3.3zm0.5-3.8h2.3l-1.2-8.6-1.1 8.6z"/>
  <path class="cls-1" d="m161.3 59.2 1.1 4.5h-3.5v20h-5.1v-20h-3.3l1.2-4.5h9.6z"/>
  <path class="cls-1" d="m163.6 59.2h9.5l0.8 4.5h-5.3v5.8h3.9v4.3h-3.9v5.3h5l-0.8 4.5h-9.2v-24.4z"/>
  <path class="cls-2" d="m63.7 60.9-0.5-2.1-1.7 0.4 0.3 1.8c-2.3 0.5-4.4 2.4-4.4 5.4 0 2.7 2.2 5.3 5.4 5.3 2.8 0 5.7-2.2 5.7-5.5 0-2.3-1.8-4.9-4.8-5.3zm-0.3 7.3c-1-0.1-1.9-1-1.9-2.2 0-1 0.6-1.8 1.3-2.1l-0.6-2.1 1.6 0.1 0.4 1.8c0.9 0.2 1.7 1 1.7 2.1 0 1.4-1.2 2.5-2.5 2.4z"/>
  <path class="cls-2" d="m54.6 80.3c-1.6 0-3 1.1-3.6 2.4h-6.7c-0.9 0-1.2-0.2-0.9-1.2 0.9-2.9 3.2-8.9 4-10.2 0.7 2.9 1.8 6.4 3.2 8l1.8-0.5-4-17.7-1.7 0.2c-0.1 3 0.4 6.2 0.9 8.6-0.7 0.4-1.2 0.9-1.6 1.6-1.6 3.3-3.1 7.4-3.9 10.1-0.3 1.4 0.6 2.4 2 2.4h14.3c0-1.9-1.7-3.7-3.8-3.7z"/>
  <path class="cls-2" d="m70.9 73c-1.3-0.6-2.8-1.1-4.6-0.5-3.4 1.4-5.7 6.7-5.7 11.5h17.5c-1.1-3.7-4.7-9.3-7.2-11z"/>
  <line class="cls-3" x1="42.2" x2="173.8" y1="88.8" y2="88.8"/>
</svg>
