<svg xmlns="http://www.w3.org/2000/svg" viewBox="0 0 190 49.4">
<!-- HimRate logo — horizontal, coral on cream. Variant 3 of 3 (warm/accent theme). -->
  <style type="text/css">.cls-0 {fill:#FFFBEE;}
.cls-1 {fill:#E84C3F;}
.cls-2 {fill:#010101;}</style>
  <rect class="cls-0" width="190" height="49"/>
  <rect class="cls-1" x="2.5" y="44.1" width="185.4" height="2.2"/>
  <path class="cls-2" d="m31.4 5.6 0.8 4c1.4 0.3 2.5 1.6 2.5 3.1 0 1.7-1.3 3.2-3.1 3.2-1.7 0-3.3-1.4-3.3-3.2 0-1 0.5-2 1.3-2.6l-0.8-4.2c-3.1 0.6-5.9 3.5-5.9 7.2 0 4 3.2 7.8 7.7 7.8 4.2 0 7.7-3.3 7.7-7.6 0-3.9-2.9-7.2-6.9-7.7z"/>
  <path class="cls-2" d="m31.1 2.6-2.7 0.4 0.4 2.7c0.6-0.1 1.2-0.2 2.2-0.2l0.4 0.1-0.3-3z"/>
  <path class="cls-2" d="m24.2 38.3c-0.2-2.7-2.4-5.2-5.4-5.2-2.2 0-4.4 1.4-5.2 3.6h-8.2c-1.5 0-1.7-0.6-1.3-2 1.5-4.7 4.3-11.3 5.2-14l0.6-0.3c1 4.1 2.5 9.5 3.6 11.2l2.1-0.4-5.1-25.5-2 0.5c-0.3 2.4 0.4 7.9 1 12.3-0.8 0.4-1.5 0.9-1.9 1.7-1 2.1-4.2 9.9-4.9 12.8-0.5 1.4-1.2 3.6 0.4 4.8 0.4 0.4 1 0.5 1.8 0.5h19.3z"/>
  <path class="cls-2" d="m27.5 38.3h24.4c-1.2-4.4-6-11.3-9.1-14.4-2.5-2.5-7.2-3.5-10-0.8-4.2 3.9-5.2 10.6-5.3 15.2z"/>
  <path class="cls-1" d="m73.2 37.7h7v-34.6h-7v14.9h-3.7v-14.9h-7.3v34.6h7.2v-13.7h3.8v13.7z"/>
  <path class="cls-1" d="m83.1 3.1v34.6h6.7v-34.6h-6.7z"/>
  <path class="cls-1" d="m92.8 3.1v34.5h6.4v-16.1l4.3 13.8 4.4-13.8v16.1h7v-34.5h-7.5l-3.8 14.9-4-14.9h-6.8z"/>
  <path class="cls-1" d="m132.6 3.2h-14.7v34.4h6.8v-10.9h1l3.4 10.9h7.2l-3.6-10.9c1.8-0.1 3.1-1.1 3.1-3.2v-15.8c0-2.7-1.1-4.5-3.2-4.5zm-3.7 18h-4.2v-12h3.7c0.3 0 0.5 0.3 0.5 0.7v11.3z"/>
  <path class="cls-1" d="m151.4 3.1h-7.4l-6.5 34.5h7.2l0.6-4.2h4.5l0.7 4.2h7.1l-6.2-34.5zm-5.4 25 1.6-12.6 1.5 12.6h-3.1z"/>
  <path class="cls-1" d="m157.6 3.1-1.8 6.4h4.7v28.2h7.2v-28.2h4.6l-1.6-6.4h-13.1z"/>
  <path class="cls-1" d="m174.1 3.1h12.5l1.1 6.4h-7.1v8.3h5.5v6h-5.4v7.6l6.7-0.1-1.1 6.4h-12.2v-34.6z"/>
</svg>
